<?xml version="1.0" encoding="UTF-8" standalone="no"?>
<!-- Created with Inkscape (http://www.inkscape.org/) -->

<svg
   xmlns:dc="http://purl.org/dc/elements/1.1/"
   xmlns:cc="http://creativecommons.org/ns#"
   xmlns:rdf="http://www.w3.org/1999/02/22-rdf-syntax-ns#"
   xmlns:svg="http://www.w3.org/2000/svg"
   xmlns="http://www.w3.org/2000/svg"
   xmlns:sodipodi="http://sodipodi.sourceforge.net/DTD/sodipodi-0.dtd"
   xmlns:inkscape="http://www.inkscape.org/namespaces/inkscape"
   width="113.07355mm"
   height="113.26096mm"
   viewBox="0 0 113.07355 113.26096"
   version="1.1"
   id="svg3752"
   inkscape:version="0.92.4 (5da689c313, 2019-01-14)"
   sodipodi:docname="cthulhu_logo_2.svg">
  <defs
     id="defs3746">
    <marker
       style="overflow:visible"
       refY="0"
       refX="0"
       orient="auto"
       id="DistanceX">
      <path
         id="path3804"
         style="stroke:#000000;stroke-width:0.5"
         d="M 3,-3 -3,3 M 0,-5 V 5"
         inkscape:connector-curvature="0" />
    </marker>
    <pattern
       y="0"
       x="0"
       width="8"
       patternUnits="userSpaceOnUse"
       id="Hatch"
       height="8">
      <path
         id="path3807"
         stroke-width="0.25"
         stroke="#000000"
         linecap="square"
         d="M8 4 l-4,4" />
      <path
         id="path3809"
         stroke-width="0.25"
         stroke="#000000"
         linecap="square"
         d="M6 2 l-4,4" />
      <path
         id="path3811"
         stroke-width="0.25"
         stroke="#000000"
         linecap="square"
         d="M4 0 l-4,4" />
    </pattern>
  </defs>
  <sodipodi:namedview
     id="base"
     pagecolor="#ffffff"
     bordercolor="#666666"
     borderopacity="1.0"
     inkscape:pageopacity="0.0"
     inkscape:pageshadow="2"
     inkscape:zoom="0.24748737"
     inkscape:cx="1190.6293"
     inkscape:cy="77.017907"
     inkscape:document-units="mm"
     inkscape:current-layer="layer1"
     showgrid="false"
     inkscape:window-width="1858"
     inkscape:window-height="1177"
     inkscape:window-x="54"
     inkscape:window-y="-8"
     inkscape:window-maximized="1"
     inkscape:pagecheckerboard="true"
     fit-margin-top="0"
     fit-margin-left="0"
     fit-margin-right="0"
     fit-margin-bottom="0" />
  <metadata
     id="metadata3749">
    <rdf:RDF>
      <cc:Work
         rdf:about="">
        <dc:format>image/svg+xml</dc:format>
        <dc:type
           rdf:resource="http://purl.org/dc/dcmitype/StillImage" />
        <dc:title></dc:title>
      </cc:Work>
    </rdf:RDF>
  </metadata>
  <g
     inkscape:label="Layer 1"
     inkscape:groupmode="layer"
     id="layer1"
     style="display:inline"
     transform="translate(0.15886872,-0.07162507)">
    <g
       id="g3816"
       inkscape:label="0"
       transform="scale(0.26458333)" />
    <path
       style="fill:#000000;stroke-width:0.26458335"
       d="m 48.880787,112.60921 c 3.504361,-2.3952 5.042447,-5.23655 4.364482,-8.06262 -0.299276,-1.24753 -0.26982,-1.49501 0.39488,-3.3175 0.395054,-1.08317 0.831852,-1.969402 0.970661,-1.969402 0.138808,0 0.55717,0.66575 0.929695,1.479462 0.60669,1.32518 0.666203,1.73368 0.570693,3.91742 -0.08666,1.98149 -0.242445,2.71556 -0.832014,3.92059 -1.362196,2.78423 -3.523766,4.42033 -6.133814,4.6427 l -1.322917,0.11272 z m 13.31398,0.3043 c -3.49996,-0.94241 -5.729091,-4.74153 -5.441798,-9.2745 0.131426,-2.07368 1.065348,-4.792932 1.544438,-4.496842 0.10765,0.0665 0.51481,0.955992 0.90479,1.976572 0.65328,1.70962 0.68406,1.95981 0.39124,3.18042 -0.37311,1.55529 -0.1889,2.80156 0.66241,4.48154 0.64885,1.28044 2.59006,3.24775 3.70667,3.75651 1.55405,0.70808 0.38702,0.9565 -1.76775,0.3763 z m -26.144912,-0.71549 c -1.418352,-0.27771 -3.349112,-1.56584 -4.476734,-2.98669 -0.448961,-0.56572 -0.816293,-1.10912 -0.816293,-1.20757 0,-0.0985 1.347566,-0.84953 2.994586,-1.66905 l 2.994589,-1.49004 1.172599,0.407 c 2.356064,0.81775 4.946666,-0.32959 6.979642,-3.09119 2.98019,-4.048312 4.647906,-11.109862 4.640524,-19.649244 C 49.531625,74.254989 47.822226,70.075554 43.843694,68.586995 41.602946,67.748623 38.974101,67.648613 33.005787,68.174681 23.71662,68.993463 16.712546,68.264401 10.99298,65.883339 3.2213566,62.648003 -0.64714436,56.300442 -0.10956136,47.665931 c 0.267451,-4.29573 1.32222896,-7.254695 3.93518596,-11.039369 1.672237,-2.422113 4.939169,-5.931567 7.1829264,-7.716156 2.232546,-1.775671 5.490484,-3.998643 5.860323,-3.998643 0.329171,0 2.510871,2.809561 2.510871,3.233463 0,0.141076 -1.404797,1.703684 -3.121771,3.472458 -4.192562,4.319051 -6.186424,6.892177 -7.5860234,9.789944 -2.078615,4.303623 -2.524413,8.911178 -1.201585,12.419016 1.963707,5.207304 8.7854234,8.200059 18.7885464,8.242718 3.287588,0.01402 4.111585,-0.07011 5.759521,-0.588034 4.289986,-1.348293 6.322251,-5.491932 3.385788,-6.903381 -1.652563,-0.794325 -4.947959,0.662977 -6.245047,2.761707 l -0.613752,0.993069 -0.876948,-1.033915 c -1.18723,-1.399736 -2.858518,-4.688078 -3.261552,-6.417271 -0.528523,-2.267598 -0.240031,-5.193803 0.710298,-7.204615 0.917217,-1.940751 2.530072,-3.868616 4.194571,-5.013823 0.628927,-0.432712 1.19439,-0.786751 1.25658,-0.786751 0.06219,0 0.190164,0.737547 0.284382,1.638996 0.29324,2.805562 1.528958,4.642858 3.44633,5.124087 0.722048,0.181221 0.730692,0.208045 0.645319,2.002563 -0.04759,1.000384 -0.0059,1.818611 0.0927,1.818283 0.444103,-0.0016 1.270693,-1.478794 1.532184,-2.73838 0.292274,-1.407887 0.06157,-4.090339 -0.546212,-6.350902 -0.150669,-0.560393 -0.219149,-1.07369 -0.152177,-1.140661 0.06697,-0.06697 0.653013,0.570124 1.302313,1.415769 1.973969,2.570883 7.356785,10.474437 7.22411,10.607112 -0.06842,0.06842 -0.503238,-0.194381 -0.966267,-0.583993 -1.084209,-0.912302 -2.336321,-0.858055 -2.803263,0.121454 -0.847955,1.778762 1.032957,4.55689 4.206261,6.212692 4.391647,2.291522 7.250819,4.648087 8.688801,7.161414 1.638874,2.864456 2.367465,8.034357 2.368748,16.808041 0.0019,12.453395 -1.765427,20.550697 -5.683602,26.041527 -3.481583,4.87901 -8.848894,7.22321 -14.158145,6.18367 z m 35.091402,-0.11199 c -7.38464,-1.86797 -11.88973,-8.93424 -13.575311,-21.293012 -0.644779,-4.72756 -0.646668,-18.32022 -0.0031,-22.09271 0.566361,-3.319746 1.763891,-5.872465 3.630601,-7.739174 1.34874,-1.348743 1.72847,-1.624389 6.7983,-4.934895 2.92118,-1.907477 3.80509,-2.8448 4.31713,-4.578004 0.28369,-0.960244 0.26828,-1.204645 -0.1126,-1.785937 -0.58607,-0.894454 -1.71887,-0.889773 -2.79001,0.01153 -1.09429,0.920782 -1.02164,0.572799 0.3134,-1.501259 1.48207,-2.302473 7.16848,-10.290562 7.26018,-10.198862 0.0395,0.03949 -0.10517,0.996709 -0.32146,2.12716 -0.75802,3.96185 -0.437,7.016917 0.85851,8.170043 0.52725,0.469299 0.53009,0.459367 0.3979,-1.38824 l -0.13315,-1.860923 1.16711,-0.516266 c 0.6419,-0.283948 1.43866,-0.805331 1.77057,-1.158632 0.67419,-0.717637 1.35871,-2.965913 1.3635,-4.478311 0.002,-0.545703 0.11151,-0.992187 0.24396,-0.992187 0.13246,0 0.81707,0.455866 1.52136,1.013034 3.04444,2.408475 4.60517,5.18333 4.79904,8.532313 0.18639,3.219712 -0.6477,5.793242 -3.05047,9.412079 l -0.93825,1.413105 -1.93297,-1.836137 c -2.04899,-1.946341 -2.97858,-2.345942 -4.70425,-2.022205 -1.38699,0.260201 -1.84871,0.951918 -1.69603,2.540891 0.41273,4.295373 6.66016,6.225342 15.7721,4.87235 5.7577,-0.854937 9.856933,-2.734752 11.832613,-5.42617 1.66644,-2.270146 2.06916,-3.654888 2.0713,-7.122176 0.002,-2.637452 -0.0954,-3.324628 -0.72846,-5.159376 -1.40385,-4.068715 -3.42771,-7.001219 -8.513093,-12.335161 l -3.2886,-3.449347 0.39781,-0.769279 c 0.49775,-0.962546 1.94532,-2.628514 2.28393,-2.628514 0.52777,0 7.641003,5.63031 9.711293,7.686732 3.32535,3.303084 5.51415,6.913666 6.56783,10.834103 0.64242,2.390264 0.6439,8.448271 0.003,10.847917 -2.03084,7.59962 -8.33613,12.115851 -19.267933,13.800869 -1.49915,0.231076 -4.14502,0.309152 -8.17027,0.241091 -12.83958,-0.217099 -14.03694,-0.190127 -15.69451,0.353552 -4.54782,1.491665 -6.19268,5.610024 -5.92743,14.840956 0.14397,5.01036 0.74685,9.29485 1.78704,12.7 2.10055,6.876352 5.8773,10.373792 9.71285,8.994552 l 1.26554,-0.45508 1.5724,0.9472 c 0.86482,0.52096 2.20269,1.20302 2.97305,1.51568 0.77035,0.31267 1.40064,0.66302 1.40064,0.77858 0,0.67758 -2.23649,2.92315 -3.55268,3.5671 -1.83352,0.89706 -5.01809,1.12152 -7.39205,0.52102 z M 23.74537,106.84826 c -3.167607,-0.81289 -5.370879,-2.65281 -6.814018,-5.69028 -0.728424,-1.533162 -1.553726,-5.392702 -1.223711,-5.722722 0.0744,-0.0744 0.54411,-0.0173 1.043795,0.12686 0.499684,0.14418 1.885085,0.33786 3.078667,0.43041 2.095622,0.1625 2.175615,0.19316 2.329312,0.89294 0.08754,0.39857 0.578049,1.21404 1.090021,1.81216 1.19338,1.394202 3.13115,2.024252 5.535249,1.799752 2.104004,-0.19647 3.682735,-0.810112 7.480668,-2.907662 1.699739,-0.93875 3.685746,-1.91407 4.41335,-2.16739 1.463546,-0.50953 4.739704,-0.82326 5.804993,-0.55589 0.806511,0.20242 0.759227,0.6825 -0.306959,3.11662 -0.633669,1.44667 -0.707403,1.51325 -2.019525,1.82365 -2.046584,0.484152 -3.789413,1.325342 -6.959891,3.359252 -3.375414,2.16537 -4.177183,2.59303 -6.152846,3.28188 -1.873403,0.65321 -5.531996,0.85391 -7.299105,0.40042 z m 58.809637,-0.0447 c -1.97291,-0.50147 -3.59475,-1.33856 -6.69668,-3.45642 -3.1045,-2.1196 -5.21704,-3.21195 -7.02771,-3.633882 -1.29385,-0.30149 -1.41705,-0.40295 -1.99669,-1.64424 -0.72457,-1.55165 -0.81302,-2.91315 -0.20442,-3.14669 0.63028,-0.24186 2.73732,-0.18135 4.0794,0.11715 0.65485,0.14565 3.41443,1.34257 6.1324,2.65982 5.68292,2.754192 7.36314,3.203912 9.87235,2.642382 1.76296,-0.394532 3.3825,-1.683182 3.83374,-3.050462 0.28663,-0.8685 0.30695,-0.87752 2.65461,-1.17859 1.30117,-0.16687 2.74386,-0.37902 3.20598,-0.47144 l 0.84022,-0.16805 -0.14727,1.56252 c -0.41905,4.445962 -2.93422,7.940032 -6.74616,9.371752 -1.97869,0.74316 -5.69242,0.93178 -7.79977,0.39615 z M 28.215294,99.149818 c -0.07902,-0.20594 -0.224113,-1.18157 -0.322424,-2.16809 l -0.17875,-1.79366 -3.989375,0.0722 c -5.765047,0.10425 -8.959883,-0.71595 -12.842355,-3.29702 -3.1760134,-2.11141 -5.5817924,-5.36478 -7.0283754,-9.504596 -0.708669,-2.028058 -0.739249,-2.321579 -0.730496,-7.011459 0.0085,-4.565769 0.05758,-5.051965 0.72989,-7.233021 0.396415,-1.286026 0.926619,-2.727679 1.178233,-3.203678 l 0.457478,-0.86545 2.676861,1.306166 2.6768604,1.306164 -0.627331,2.029806 c -1.0841984,3.508053 -1.3207394,5.975393 -0.8176624,8.528948 0.6190534,3.142229 1.6882944,5.139627 3.8341604,7.16241 2.895262,2.72919 6.620919,4.21558 11.573748,4.61745 l 2.285117,0.18541 -0.17576,-0.93689 c -0.261038,-1.39144 0.582472,-3.02697 2.505363,-4.85777 0.899568,-0.856491 1.71708,-1.53326 1.816695,-1.503937 0.09961,0.02933 0.422215,1.339014 0.716889,2.910417 0.479642,2.55776 0.590524,2.84779 1.058333,2.7682 1.28646,-0.21886 3.989613,-1.79845 5.50735,-3.21822 2.647183,-2.476309 3.869399,-5.254212 3.875611,-8.808632 l 0.0031,-1.797005 1.699863,-0.762675 c 2.755673,-1.236388 2.835812,-1.218438 3.503901,0.784807 0.65844,1.974308 1.146236,5.142442 1.146236,7.444566 V 82.8897 l -2.560698,2.827188 c -4.125794,4.55515 -6.027577,5.90756 -10.668477,7.58665 -2.509536,0.90795 -2.352468,0.63127 -2.094481,3.68952 l 0.110106,1.30525 -1.719791,0.60597 c -1.979044,0.69731 -3.389596,0.79355 -3.599868,0.24559 z m 54.267573,0.18444 c -0.29104,-0.0707 -1.1065,-0.3743 -1.81213,-0.67462 l -1.28298,-0.54603 0.0923,-1.9682 0.0923,-1.96821 -2.55821,-0.99327 c -4.85786,-1.88616 -6.7513,-3.2016 -9.65082,-6.7048 -1.07758,-1.30193 -2.25396,-2.59896 -2.61417,-2.88231 -0.56008,-0.44056 -0.65493,-0.733705 -0.65493,-2.024256 0,-2.383538 0.50604,-5.803016 1.13881,-7.695303 0.67711,-2.02488 0.79663,-2.05177 3.55755,-0.800343 l 1.65364,0.74954 v 1.845104 c 0,3.467786 1.30797,6.397834 3.94642,8.840578 1.43634,1.32979 4.89354,3.37042 5.71012,3.37042 0.20175,0 0.44528,-0.77774 0.64207,-2.05052 0.34878,-2.25572 0.76118,-3.770311 1.02663,-3.770311 0.0944,0 1.0377,0.860224 2.09614,1.911611 l 1.92445,1.9116 v 1.49712 c 0,1.82769 0.13117,1.88722 3.41103,1.54789 6.28153,-0.64988 10.882253,-3.447 13.095313,-7.96162 1.762,-3.594452 1.874,-7.584924 0.34117,-12.155245 l -0.62809,-1.872718 0.5554,-0.333094 c 2.44795,-1.468136 4.54134,-2.536463 4.78614,-2.442525 0.40996,0.157316 1.91128,4.693835 2.27714,6.880807 0.47332,2.829327 0.17656,8.867106 -0.54795,11.148466 -1.03627,3.263019 -2.30513,5.371619 -4.62202,7.680969 -1.66592,1.66049 -2.62304,2.36528 -4.38063,3.22575 -3.587283,1.75626 -4.995153,2.03774 -10.246003,2.04851 l -4.55745,0.009 -0.12823,0.66146 c -0.0705,0.36381 -0.20627,1.34607 -0.30167,2.18282 -0.17106,1.5004 -0.18487,1.52093 -1.00286,1.49066 -0.45618,-0.0169 -1.06754,-0.0886 -1.35858,-0.15928 z M 22.641293,88.135478 c -0.607243,-0.12008 -1.947982,-0.46964 -2.97942,-0.77682 -2.188041,-0.65163 -2.21625,-0.31572 0.344836,-4.106266 2.118552,-3.135572 7.684501,-8.692494 11.128238,-11.110196 1.444892,-1.014397 2.808933,-2.161223 3.031202,-2.548501 0.310073,-0.540274 0.67709,-0.741561 1.577038,-0.864913 2.750952,-0.37706 6.76797,0.01177 8.344262,0.807688 1.507824,0.76135 2.513963,1.941963 1.654972,1.941963 -0.770729,0 -7.839075,3.794723 -10.223093,5.488387 -2.812407,1.997999 -8.567539,7.601968 -10.186458,9.918898 -0.582083,0.83305 -1.177396,1.50416 -1.322917,1.49135 -0.14552,-0.0128 -0.761418,-0.12152 -1.36866,-0.24159 z m 66.145584,0.0104 c -0.31634,-0.12721 -1.07645,-0.9231 -1.68914,-1.76863 -1.68116,-2.32009 -6.96956,-7.403281 -9.7197,-9.342555 -3.10125,-2.186863 -5.13794,-3.343807 -8.12433,-4.615024 -1.30969,-0.557493 -2.43013,-1.056137 -2.48988,-1.108096 -0.21277,-0.185058 0.91797,-1.220312 1.85551,-1.698824 1.42139,-0.725453 4.25996,-1.130144 6.87944,-0.980789 l 2.32608,0.132628 2.06442,1.840772 c 1.13544,1.012426 3.26557,2.80393 4.73363,3.981122 4.31675,3.461468 7.00317,6.463676 9.91922,11.085216 l 0.52483,0.8318 -1.92642,0.79029 c -2.24309,0.92021 -3.54881,1.17576 -4.35366,0.85209 z M 15.001486,78.980424 c -1.276453,-1.377318 -0.800166,-5.031915 0.844376,-6.478977 1.295247,-1.139711 2.833359,-1.645698 5.021527,-1.65191 1.895968,-0.0054 2.354457,0.09499 3.892548,0.852191 0.958895,0.472062 1.99246,1.174866 2.296812,1.561788 l 0.553366,0.70349 -1.795893,1.627786 -1.795894,1.627782 -0.709605,-0.759634 c -1.494838,-1.600229 -4.181216,-2.034879 -5.80808,-0.939734 -1.077224,0.725146 -1.573671,1.668314 -1.630684,3.098025 -0.02323,0.582607 -0.08216,1.059286 -0.130945,1.059286 -0.04879,0 -0.380674,-0.315042 -0.737528,-0.700093 z m 82.228301,-0.262028 c -0.14248,-2.013437 -1.58304,-3.503779 -3.6073,-3.731942 -1.50395,-0.169516 -3.36957,0.482478 -4.12365,1.441129 l -0.53034,0.674228 -1.4599,-1.24723 c -2.54882,-2.177529 -2.48105,-2.648713 0.59907,-4.165056 3.47784,-1.712132 7.87927,-0.879665 9.58707,1.813256 0.40667,0.641244 0.8166,1.577425 0.91095,2.080398 0.20197,1.076547 -0.19802,2.756144 -0.84658,3.554923 -0.45655,0.56229 -0.46003,0.559533 -0.52932,-0.419706 z M 57.633854,61.513052 C 57.409099,61.245939 57.044355,60.789266 56.823311,60.498224 56.39022,59.927989 56.307964,59.978275 55.454209,61.335202 55.159587,61.803459 55.129136,61.801887 54.61725,61.291972 54.325084,61.00093 51.991824,57.845774 49.432229,54.280513 44.393763,47.262432 35.562889,35.770762 32.765783,32.59237 29.377376,28.742068 29.292579,27.613642 31.87052,20.678428 c 0.946621,-2.546615 2.177397,-5.98159 2.735057,-7.633278 1.077065,-3.1900694 2.256237,-5.1645374 3.848758,-6.4445654 0.837679,-0.673306 7.20479,-3.610658 12.543118,-5.78654099 2.048894,-0.835122 3.595,-0.964833 4.690219,-0.393486 0.630962,0.329156 0.855403,0.323759 1.789128,-0.04302 1.386587,-0.544667 3.070027,-0.193043 6.106917,1.27556399 1.20082,0.580699 3.76196,1.698172 5.69143,2.483272 4.08048,1.660347 5.16291,2.293795 6.55765,3.837608 1.21532,1.345217 1.9634,2.9661074 2.93273,6.3544454 0.39549,1.382448 1.34716,4.061354 2.11481,5.953125 2.00546,4.942114 2.31892,6.511923 1.72634,8.645446 -0.31458,1.132631 -0.75887,1.728483 -7.79672,10.456593 -6.4176,7.958882 -10.58255,13.475212 -14.11127,18.689874 -2.48857,3.677545 -2.68197,3.894596 -3.064833,3.439584 z M 12.617305,58.36637 c -0.864564,-0.517676 -1.795656,-1.161423 -2.069093,-1.430549 -0.485986,-0.478325 -0.475904,-0.524307 0.448695,-2.046359 0.520219,-0.856375 2.059504,-3.159424 3.420633,-5.117892 3.006243,-4.32554 4.200402,-6.281878 5.257259,-8.612725 3.46175,-7.634729 1.815549,-15.321432 -3.881969,-18.126311 -1.440608,-0.709209 -1.997678,-0.838522 -3.569888,-0.82868 -4.4008844,0.02755 -7.1306974,2.902279 -7.1306974,7.509237 0,1.510369 -0.06503,1.771693 -0.408145,1.640028 -0.22448,-0.08614 -0.654213,-0.63895 -0.954962,-1.228468 -0.468627,-0.918583 -0.531721,-1.434116 -0.441251,-3.605388 0.09425,-2.262056 0.200809,-2.71126 0.99441,-4.19204 3.409326,-6.361458 11.8317154,-6.771215 18.0816994,-0.879691 2.909623,2.742744 4.159499,5.923806 4.159499,10.586347 0,4.615937 -1.150351,9.068435 -3.612547,13.982566 -1.275179,2.545043 -8.206653,13.289897 -8.573851,13.290794 -0.08132,1.98e-4 -0.855228,-0.423193 -1.719792,-0.940869 z m 82.435422,-3.961038 c -6.50231,-9.837108 -8.7334,-15.526243 -8.7334,-22.269644 0,-4.557991 1.24976,-7.734675 4.20596,-10.690879 4.8111,-4.811094 12.149843,-5.624443 16.075663,-1.781655 2.50562,2.452636 3.79973,7.674196 2.52247,10.177834 -0.29723,0.582615 -0.70525,1.1961 -0.90671,1.3633 -0.30653,0.254403 -0.34891,0.05726 -0.25971,-1.208325 0.19519,-2.769399 -1.48507,-5.814293 -3.89668,-7.061384 -1.35602,-0.701224 -3.31776,-0.956359 -4.852593,-0.631105 -1.98355,0.420344 -3.05581,1.041054 -4.57262,2.646991 -3.94795,4.179921 -4.33051,10.352566 -1.04709,16.894633 1.17613,2.343367 3.88798,6.73571 6.589213,10.672448 1.38162,2.013543 2.45331,3.814014 2.38154,4.001043 -0.17456,0.454906 -2.23793,1.920655 -3.369063,2.393273 l -0.90753,0.37919 z m -9.43,-32.996425 c -3.73148,-3.887502 -4.88447,-6.079069 -4.91834,-9.348614 -0.0158,-1.528227 0.10319,-2.1175714 0.61484,-3.0443814 2.32987,-4.220354 9.57112,-3.669607 11.46836,0.872248 0.4822,1.1543584 0.54143,2.5881864 0.10691,2.5881864 -0.1672,0 -0.69216,-0.399671 -1.16657,-0.888158 -1.28946,-1.327713 -3.7289,-1.6611424 -4.97604,-0.680139 -1.44304,1.135096 -0.7508,3.273583 2.2164,6.846965 l 1.85666,2.23596 -1.1557,1.203624 c -0.63564,0.661993 -1.3341,1.472807 -1.55213,1.801809 -0.39402,0.594561 -0.40914,0.58494 -2.49439,-1.5875 z m -61.921894,0.184817 c -0.874469,-0.951797 -1.499902,-1.786188 -1.389852,-1.854203 0.424456,-0.262328 3.316036,-4.276429 3.881785,-5.388706 0.327422,-0.643721 0.595312,-1.562303 0.595312,-2.041295 0,-2.3287874 -3.235886,-2.6485584 -5.886979,-0.581753 l -0.992187,0.773515 v -0.947008 c 0,-1.9392514 1.137553,-3.7044394 3.042708,-4.7214934 0.824203,-0.439996 1.526593,-0.565998 3.175,-0.569564 1.842254,-0.004 2.278687,0.09066 3.366405,0.730057 1.87252,1.100726 2.670696,2.626212 2.645524,5.0561554 -0.03189,3.078373 -1.078849,5.169972 -4.474274,8.93865 -1.136753,1.261713 -2.135824,2.30351 -2.220161,2.315104 -0.08434,0.01159 -0.868813,-0.757662 -1.743281,-1.709459 z"
       id="path3846"
       inkscape:connector-curvature="0" />
  </g>
</svg>
